<svg id="Layer_1" data-name="Layer 1" xmlns="http://www.w3.org/2000/svg" viewBox="0 0 541.51 108.88"><defs><style>.cls-1{fill:#565759;}.cls-2{fill:#ffcf01;}</style></defs><title>youngminds-logo</title><path class="cls-1" d="M429.85,62.59c-.12-7.67-.2-12.77-.32-20.47.39-4.72-.14-11.76.09-16.84l-.16-1.39c.25-3.37-.06-8.52.19-13.26-.06-1.3-.09-1.82-.1-2,0,.21.07-2.9.07-2.9a7.53,7.53,0,0,0,0-2.33A2.86,2.86,0,0,0,427.78.73a11.42,11.42,0,0,0-2.15-.5,2.9,2.9,0,0,1-.8,0,6.81,6.81,0,0,0-1.09.06l-7.18.12A26.2,26.2,0,0,0,413,.7a4.15,4.15,0,0,0-2.15,1A3.19,3.19,0,0,0,410,3.85c-.07,4.06.21,15.15,0,15.29a39.88,39.88,0,0,0,.15,7s0,0,0,.15-.16,15-.14,20.88c0,2.12,0,4.27,0,6.4a3.15,3.15,0,0,1-.09.72c0,.28-.37.43-.48.11a10.81,10.81,0,0,1-.48-1.09l-.86-3c-.43-1.49-.82-2.88-1.06-4a53.47,53.47,0,0,0-1.77-5.39,15.55,15.55,0,0,1-.93-3.68c-.74-2.39-1.65-4.61-2.49-8-.07-1.24-2.94-9.32-2.68-9.5l0,0c-1.05-4.46-2.59-8.53-3.76-13.33l.11.24-.59-1.49A6.34,6.34,0,0,0,392.59,2a6.92,6.92,0,0,0-3.8-.68l-1.66.11a4.15,4.15,0,0,1-.63.14,39.81,39.81,0,0,0-4,.13,5.08,5.08,0,0,0-2.48.67c-.85.62-.82,1.71-.82,3.59V18.84c-.11,3.24-.34,7.32-.35,8.65-.15,2.14,0,4.8,0,7.48a25.88,25.88,0,0,1-.28,4.27,30.77,30.77,0,0,1-.15,3.23c0,2.77-.24,7.14,0,8-.14,3.36-.17,4.09-.22,5.35,0-.54,0,7.77.24,8.25l.08,1.78c.2.53,0,.47.14,2.07L378.48,69l.09,1.6a3.14,3.14,0,0,1-.07.66s-.06,0-.06.05c.1,2.57.4,5.56.37,8.66a50.72,50.72,0,0,0-.09,5.25l-.18,1.6c-.09,1.54.14,2.43,0,4.57l0,.83-.16.48c-.12,2.38-.18,3.53-.29,5.87v0c0,.56,0,.77,0,2.66l-.08,1.2c0,.6,0,1.21,0,1.83a8.78,8.78,0,0,0,.18,2.19,2.5,2.5,0,0,0,1.91,1.67,10,10,0,0,0,1.7.27c.75.09,3,.25,3,.25,4.24,0,6.33,0,8.66-.18a6.4,6.4,0,0,0,2.09-.51,2.76,2.76,0,0,0,1.6-2.35c.1-1.57.08-2.94.14-5.09a22.27,22.27,0,0,1,0-3c0-5-.05-6,.15-9.29V83.31c0-1.06-.07-2,0-3.16l-.08-2.26c0-1.44-.09-2.33,0-4h0l0-.31,0,0c.08-3.27-.17,0-.06-3.71.13-1.2-.24-1.33-.2-3.15V64.93c.08-1.65.33-2.63.28-3.79a7.19,7.19,0,0,1-.09-1.47c.18-.43.56-.28.87.34a6.89,6.89,0,0,0,.46,1.44l1.58,5.4.65,2.52.91,2.88c.24.78.56,1.72.92,3.21l.39,1.61c1,4.23,3.38,11.87,3.38,11.87.22.8.73,1.14.59,1.69l.12.86A12.89,12.89,0,0,1,408,95l.66,1.66a14.21,14.21,0,0,1,.61,2.92l-.09.38c.58,1.19,0,.37.79,2.54a5.46,5.46,0,0,0,.25,1.29,12,12,0,0,0,.9,2,4.68,4.68,0,0,0,1,1.25c-.14-.13,1,.58,1.87.94a7.67,7.67,0,0,0,2.59.62l-1-.09a51.25,51.25,0,0,0,5.76.4,26.66,26.66,0,0,1,4-.18,4.16,4.16,0,0,1,1.24.07,6.72,6.72,0,0,0,1.23-.4,2.66,2.66,0,0,0,1-.8,2.2,2.2,0,0,0,.73-1.69c0-.48-.09-.54,0-.48l0-.36.05-7.66s.3-4.73,0-4.48c.16-1.44,0-2.76.18-4.38,0-5-.29-7.75-.13-13.87.28-2.18.19-8.15.22-12.07"/><path class="cls-1" d="M486.83,36.58c0-4.54,0-4.57.15-9.31l-.13-.53c0-.94,0-.94.08-1.2a45.89,45.89,0,0,0-.47-7.95l-.28-.38c-.16-.61-.17-1.62-.53-1.84l-.57-1.26c-.33-.82-.66-1.26-1.05-2.2h0l-.07-.18v0c-1-1.76-.08.07-1.32-1.89-.36-.67-.68-.53-1.41-1.39l-.6-1C479.17,6,480,6.12,477.47,4.57c-1.2-.79-1.59-.71-2.07-1.23a3.39,3.39,0,0,1-1.91-.82,8.49,8.49,0,0,0-2-.67,6.62,6.62,0,0,1-1.69-.17s-.23.19-2-.21l-.93-.28L465.33,1l-.08-.13L464.17.77,463.09.69s-1.36,0-2.83-.08l0-.06C457.7.34,452.93.5,452.93.5a5.5,5.5,0,0,0-1.58,0,5.24,5.24,0,0,1-2.12.06l-1.09,0A5.54,5.54,0,0,1,446.36.3l-.51-.13a11.36,11.36,0,0,1-2-.12c.07,0-2.3.24-2.44.32a4.17,4.17,0,0,0-2.26,1.2,4.67,4.67,0,0,1,.67-.57,3.91,3.91,0,0,0-1.57,1.67A5,5,0,0,0,437.76,4c.1-.33,0,.24,0,.73A5.3,5.3,0,0,1,437.89,7a.13.13,0,0,1-.07-.1,2.69,2.69,0,0,1,0,.84v.6c-.06.57.1,1.41,0,1.34l-.1,4s-.26,2.43,0,2.29c-.16.82.24,2.66-.1,4.35,0,2.86.17,2.8,0,6.28a54.54,54.54,0,0,0-.22,6.86c.12,4.36.2,7.39.31,11.63-.39,2.68.14,6.69-.09,9.57l.16.79c-.25,1.92.05,4.85-.19,7.54l.1,1.16c0-.12-.06,1.65-.06,1.65-.2-.11.09,2.33-.08,3.19l.31,4.63c.43,6.14-.37,5.22.06,11.07,0,.53,0,0-.13,1.25a25.2,25.2,0,0,0,.15,4s0,0,0,.08a15.35,15.35,0,0,0,0,2.51c-.09,2.06-.11,4.35-.11,6.75,0,1.2,0,2.42,0,3.66s-.28,2.56.94,4.37l-.15-.22a3.07,3.07,0,0,0,1.72,1.47,6,6,0,0,0,1.77.26l2.77,0s3.58-.16,4.9,0a20,20,0,0,0,3.38-.21c1.44-.14,2.75.13,2.13.12a49,49,0,0,1,5.13-.2c.78.38,6-.67,6-.5l0,0c2.83-.33,8-2.63,7.95-2.58a20.05,20.05,0,0,0,2.36-2,14.22,14.22,0,0,0,1.88-2.34,21.7,21.7,0,0,0,5.86-9.37h0s0,0,0,0a21.71,21.71,0,0,0,.56-2.26c.09-.36.18-.75.26-1.14a23,23,0,0,0,.51-3.76c.15-1.22,0-2.73,0-4.25a8.62,8.62,0,0,1,.28-2.43,9.84,9.84,0,0,1,.15-1.83c0-1.57.24-4.06,0-4.54.11-2.12.48-8.92.22-9.19L486.25,61l-.08-.91c.06-.61.16-3.86.18-5.66a17.62,17.62,0,0,0-.33-2.65l.18-.91c.34-3,.15-3.34.15-3.34.1-1.52.16-2.13.29-3.34h0c0-.32,0-1.16,0-2.23l.07,0c0-1.3,0-1.83,0-2.73a4.47,4.47,0,0,1,.29-1.82ZM468.55,53.15a5.75,5.75,0,0,1-.07.7,23.22,23.22,0,0,1-.05,3.08s-.19,1.44,0,1.61l0,1a5.21,5.21,0,0,0,0,1.34c-.12.87-.19,1.22-.34,1.92h0a9,9,0,0,0,0,1.29s0,1.64,0,2.17c0,.25-.18.91-.18.91a41.65,41.65,0,0,1-.18,5.35s.2.84.05,1c0,1.64-.17,4.63-.17,4.63,0,.35.06,1.77.06,1.77a5.12,5.12,0,0,1,0,1.3h0s.19.09.07,1.31a6.15,6.15,0,0,0-.13,1.54c-.29,1,.06,1.15-.43,2.44-.39.57-.75.58-1.09,1.28-.18,0-.38,1-.38,1a8.45,8.45,0,0,1-2.81,1.1l-.77.23s-1.23.24-1.24.21H461a6.17,6.17,0,0,1-1.76.17s-1.74-.11-2.5-.08l-.73,0a.44.44,0,0,1-.41-.21s-.08.06-.08-.21l0-.8,0-.74c.09-.85.27-1,.27-1l-.22-2a1.4,1.4,0,0,1,0-1.21c-.08-.89,0-1-.06-1.41a6.47,6.47,0,0,1-.08-1.67.11.11,0,0,1,.09.06.77.77,0,0,1,0-.48v-.35c.07-.33-.11-.81.06-.77l.11-2.32a16.68,16.68,0,0,1,.22-2.9c0-1.65-.35-2.53-.16-4.53.33-.71.23-2.66.26-3.95l-.37-6.69c.47-1.54-.16-3.85.1-5.51l-.18-.45c.29-1.1-.07-2.79.22-4.33l-.11-.67c0,.07,0-3.35,0-3.35a23.26,23.26,0,0,0-.3-5.33c.21-2-.06-3.82.24-3.86a17.91,17.91,0,0,1-.18-2.3.1.1,0,0,1-.05,0,7.11,7.11,0,0,0,0-1.45c.29-3.18,0-10.93,0-10.93,0-.64.29-.87.81-.79.73,0,1.81-.72,2.16-.73a12.88,12.88,0,0,1,4.54.74c.14.17.85.35,1.52.76s1,.81.95.93h0c.64,1.18,2,1.43,2,3,0,0,.32.67.62,1.47.36,1-.19,1.78.22,2.37,0,0,0,.09,0,.14v7.7a16.76,16.76,0,0,0,.13,2.83,21.57,21.57,0,0,0,0,2.45c0,1.4.08,2.34,0,2.45,0,.91-.29,2.33,0,2.61-.14,1.22-.08,1.46,0,1.26.12.75.19,3.93.32,4.45Z"/><path class="cls-1" d="M541.24,79.57c.15-1.22-.45-2.64-.74-3.88-.34-1.65-2.27-5.94-4.51-10.34-.61-1.68-3.32-5.72-5.27-8.22-3.85-4.86-6.6-7.77-10.66-12.5-2.08-3.08-6-7.16-7.41-10.68a5.62,5.62,0,0,1-.55-.87c-.14-.6-.37-1.25-.59-1.95l-.29-2.23c.07-1.77.14-3.66.34-5.47a11.34,11.34,0,0,1,0-1.52c0,.12.55-1.83.55-1.83s.26-.53.7-1a2.41,2.41,0,0,1,1.58-.92,2.35,2.35,0,0,1,.48-.19l.17-.07c1.91-.32,3.45.1,4.13,1.14a7.73,7.73,0,0,1,1.1,4c.1,1.44,0,3,0,4.62,0,.79,0,1.62,0,2.59,0,.23,0,.46,0,.7a5.55,5.55,0,0,0,.09,1.16c.13.76,1.41,1.58,2.37,1.77a6,6,0,0,1,1.58.26,23.13,23.13,0,0,0,6-.07s5.76,0,7-.13a3.67,3.67,0,0,0,2.31-1.05,2.27,2.27,0,0,0,.47-1.19c0-.47,0-.91,0-1.11,0-2.17,0-4.41,0-6.71A23.67,23.67,0,0,0,536.49,10l.16.39a23.28,23.28,0,0,0-5.08-5.32,15.82,15.82,0,0,0-4.34-2.16,20.23,20.23,0,0,1-3-1.15,42.56,42.56,0,0,0-7.06-.88,18.15,18.15,0,0,0-4.5.05c-1.93.16-3.73.57-3.81.45l0,0c-4,.51-7.34,2.86-10,5.89l.11-.19a31.1,31.1,0,0,0-2.07,3.52,38.74,38.74,0,0,0-1.57,3.68c-1.91,3.33-2.55,9.07-2.55,13.61a29.28,29.28,0,0,0,.62,5.91A17.77,17.77,0,0,0,494.54,39c.37,1.69,1.61,3.46,2.51,5.39a18.4,18.4,0,0,1,1.6,3c1.1,1.85,1.24,2,1.37,2.2a33.35,33.35,0,0,0,4,5c1.88,2.34,2.32,2.72,2,2.34,1.3,1.32,6.58,7,7.49,7.91l.48.7.89.92c.5.69.8,1.08.79,1.1a24.25,24.25,0,0,1,3.51,4.66,4.15,4.15,0,0,1,1,1.49A12.79,12.79,0,0,0,521.25,76a9.36,9.36,0,0,1,.24,1.21c.46,2,.65,2.65.71,3a8.85,8.85,0,0,1,.3,1.91,38.67,38.67,0,0,0-.68,3.85v0l-.3,2.91-.06-.06a4.79,4.79,0,0,1-2.6,3.26,5.2,5.2,0,0,1-1.71.2,4.61,4.61,0,0,1-3.83-3c-.59-1.24-.49-2.61-.39-6a13.74,13.74,0,0,1,0-2.37V80a2.83,2.83,0,0,0-.26-1.14,3.09,3.09,0,0,0-2.13-1.19,26.41,26.41,0,0,0-3.32-.32l-5-.25a14.55,14.55,0,0,0-3.19.14l-1.92.11c-1,.1-3.63,0-3.87,2.19h0a2.31,2.31,0,0,0,0,.42l0,0c0,.86,0,1.11,0,1.4s.06.16.05.19c-.1.44.07.13,0,1.59-.13.94.24,1,.2,2.46L493.11,87c0,2.75.16,3.27,1.36,7.07a10.44,10.44,0,0,0,1.86,4.35,27.94,27.94,0,0,0,2.74,2.92s2.16,1.92,3.74,3.06a5.4,5.4,0,0,0,.76.6l.92.49.45.23,2,1a32.76,32.76,0,0,0,4.14,1.32l.53.1c3.64.95,6.24.9,10.55.13a9.5,9.5,0,0,1,1.58-.35s2.1-.43,3.16-.74l1.33-.79c2-1,2.36-1.1,2.36-1.1s2.59-1.66,3.11-2.09c0,0,.56-.59,1.05-1.23s.95-1.29.95-1.29.53-.87,1.25-2.11l-.47.87a41.78,41.78,0,0,0,2.23-4.09,16.76,16.76,0,0,1,.89-2.91,2.13,2.13,0,0,1,.41-.74l.13-1.23c.27-.77.43-1.37.43-1.37s.36-1.51.58-3.05.4-2.56.4-2.56v-.7a24.31,24.31,0,0,0-.27-3.25"/><path class="cls-2" d="M47.93,4.6l0-.3a2.58,2.58,0,0,0,0-.65A1.46,1.46,0,0,0,47.76,3a1.93,1.93,0,0,0-.52-.51c0-.12-.38-.34-.35-.37-2.32-.89-4.82-.77-7.19-.88l-.57.15c-1.94-.21-2.47,0-2.86.28l-1.2-.05A6.63,6.63,0,0,0,32,2.22L30.75,3s-.1.08-.23.19l-.06.06-.12.14.1-.12-.29.28a.48.48,0,0,0-.19.25l0,.07a.67.67,0,0,0,0,.09h0a1.3,1.3,0,0,0-.17.37l-.2,1-.41,1.85v0C29,7.57,29,8,28.8,9.27l-.16.55-.58,4.6c-.09.47-.2.65-.31,1.31l-.1.58c-.74,5.48-.73,5.51-1.7,11.2a10.69,10.69,0,0,1-.24,2.09l-.39,2.57-.2,1.26L25,34l0,.2c-.1.36,0,.34-.16.53a3.72,3.72,0,0,0-.09.78s-.06.68-.14.63c-.26-.09-.26.05-.26-.59h0v-.07a3.81,3.81,0,0,1-.11-.7v0a2.5,2.5,0,0,0-.07-.66c-.14-2-.49-2.56-1-5.78a4.53,4.53,0,0,1-.14-1.67c-.32-1,.22-.32-.18-2.21.06-.31-.34-.36-.52-1.64a2.66,2.66,0,0,1-.31-1,22.49,22.49,0,0,1-.62-3.65l0-.68-.29-1.66v-.81L21,14l-.09-.31a25.19,25.19,0,0,1-.39-2.51l0-.9a55.22,55.22,0,0,0-.9-6.06A3.08,3.08,0,0,0,18.4,2.32c-.59-.46-.6-.6-1.2-.79-1.4-.59-.14.07-1.76-.33L15,1A11.63,11.63,0,0,1,12.29.57L11.92.7,11.22.6C10.64.44,10.4.53,10.07.3L8.77.46,8.51.28c-1,.23-1-.05-2.7.16C5.67.37,6.11.3,5.51.31A5.33,5.33,0,0,0,4.36.58l-.17.3a19,19,0,0,0-2.28.66,7,7,0,0,0-1.28.72A2.42,2.42,0,0,0,0,4.41a14.15,14.15,0,0,1,.27,1.7,1.6,1.6,0,0,1,.21.74c.22.08.38,1.29.55,1.7,0,0,.21.87.18.79a1.46,1.46,0,0,1,0,.72l.44,1c.1.69.2,1.22.2,1.22l1.18,5.17,0,.2c.35.46.44,2.58.72,2.51.07,1,.91,3.3.56,3.31.78,3.4,1.53,5.17,2.35,9.33A81.37,81.37,0,0,0,8.36,41l3.59,13.74a41.47,41.47,0,0,0,1.25,5.55l.8,3A12.19,12.19,0,0,1,14.22,66l.21.91A38.89,38.89,0,0,0,14.6,71c0,1.59,0,3.3-.11,4.93.06.93.08,1.28.09,1.41,0-.15,0,.35.11.28a9.83,9.83,0,0,1-.09,1.59l-.09.13c-.2-.14.08,2.83-.1,3.88l.15,1c.4,7.46-.26,10.95.13,18.07-.05.49.11,1.42-.14,1.52a8.51,8.51,0,0,0-.13,1.32,8.6,8.6,0,0,0,0,.9,3.12,3.12,0,0,0,.32,1,3.13,3.13,0,0,0,1.66,1.16,8.39,8.39,0,0,0,1.5.3.23.23,0,0,1,.13,0s.75.14,1.47.2a2.93,2.93,0,0,1,.83.11c.53.12.61-.06,1.09,0,1.86.09,3.72.11,5.79.11,1,0,2.08,0,3.19-.15a13.39,13.39,0,0,0,1.83-.3c.82-.25,1.74-.57,2-1.37a16.06,16.06,0,0,0,.18-3.63v-3.07c0-2,0-4,0-6V94c0-2-.16-3.87,0-5.38a25.25,25.25,0,0,0-.22-3.9,7.39,7.39,0,0,1,.12-2.62,55,55,0,0,1-.2-5.75c.28-.83-.35-5.69,0-6.46l0-.33a55.87,55.87,0,0,1,1.32-8.93s.09-.24.1-.15l.43-7,0-.31c0-.1,0-.46,0-.57C37.71,46,39,40.74,40.36,34.79c.39-1.28.73-2.42.85-2.94.49-1.42.72-3.25,1.21-5A12.77,12.77,0,0,1,43.37,24,14.5,14.5,0,0,1,44,21.83c.45-1.87,1.36-4.77,1.25-5.39.41-1.45.57-2.18.7-2.76,0,.06.17-.81.16-.74,0-.14.07-.29.11-.46.64-2.43,1.93-6.62,1.78-6.92h0a3.13,3.13,0,0,1-.14-1"/><path class="cls-2" d="M100.51,23c0-1.07-.16-.49-.23-1.48a2.06,2.06,0,0,1-.34-1l-.65-3.11a10.31,10.31,0,0,0-.36-1l0-.42s-.73-1.86-.78-1.84l.09.26c-.22-.42-.65-1.34-1.12-2.1l-.17-.47a16.26,16.26,0,0,0-5.16-5.53s.05.11-.91-.62l0-.17c-1-.42-1.13-.81-1.76-1.22l-.69-.43c-.37-.37-1.08-.54-.81-.57l-.91-.22-.26-.29c-.81-.1-.73-.27-1.45-.46A2.71,2.71,0,0,0,84.23,2c0-.05-2.26-.28-2.26-.28l-1-.09a15.25,15.25,0,0,1-2.6-.43c.28.09-.21.06-.66,0-.2-.09-.37.24-1.42.17-.28-.09-.87-.09-.81-.11a1.17,1.17,0,0,1-.61-.15l-.9.23c-.61-.05-.78.17-.71,0l-.35-.05-2.28.26-1.53.31h-.83c-.37.34-2.44.66-2.2.88-.88.15-2,.8-2.77,1-2.72,1.39-3.92,2.55-6.55,5-1.12.75-3.16,3.71-4,5.85-1.55,4.18-1.68,7.23-1.57,11.45-.39,2.54.14,6.34-.09,9.08l.16.75C51,37.71,51.26,40.49,51,43l.1,1.1c0-.11-.07,1.57-.07,1.57-.2-.11.09,2.21-.08,3l.15.81c.43,5.82-.21,8.54.21,14.09a1.16,1.16,0,0,0-.13,1.18,11.69,11.69,0,0,0,.15,3.79s0,0,0,.08,0,.14,0-.08a6.06,6.06,0,0,0,0,.92v-.05h.05v.12h0l0,.24a6.37,6.37,0,0,0,0,1.23c-.16,5.36-.17,12.11.07,18.49l0-.29a42.44,42.44,0,0,0,.91,4.82A9.66,9.66,0,0,0,53.76,97c.69,1.18,1.16,2.36.85,1.85a38.66,38.66,0,0,0,3.18,3.79,9.22,9.22,0,0,0,2.35,2,19,19,0,0,1,2.2,1.46h0c2.26,1.48,3.46,1.74,6.25,2.42,0,0,1.27.34,1.2.34s1.51,0,3,0l2.29-.24a5.58,5.58,0,0,1,.61-.21,27.28,27.28,0,0,0,13.14-2.95l.8-.38a15.93,15.93,0,0,0,3.14-2,13.84,13.84,0,0,0,2.79-3.13A16,16,0,0,1,97,98c.78-1.29.78-1.43.9-1.59.68-1.41,1.46-3.76,1.29-4.27a26.9,26.9,0,0,0,.65-2.92c-.08.29.37-5.68.11-5.91h0a5.73,5.73,0,0,1-.41-1.26s0-1.16.06-1.16c-.09-1.41,0-3.37,0-5.07a16,16,0,0,0-.33-2.51l.18-.86c.34-2.88.15-3.17.15-3.17.1-1.44.16-2,.29-3.17h0c0-.3,0-1.1,0-2.12l.07,0c0-1.22.14-5.09.25-4.32l-.16-.8c0-4.31,0-4.33.16-8.83a6.5,6.5,0,0,1,0-1.64,59.42,59.42,0,0,1,.23-6.16l-.08-1.47c0-.57.29-1.42,0-1.7l-.08-1.22a16.41,16.41,0,0,1,0-2.14h0l0-.17h0c.08-1.76-.17,0-.06-2a9.51,9.51,0,0,0,0-1.68l0-1c.15-1.78-.12-2.09-.12-4.67a21.7,21.7,0,0,1,.35-2.76ZM81.89,60a4.92,4.92,0,0,0-.29,1.05h0a10.59,10.59,0,0,0,0,1.29l-.07,0,.05,2.2c0,.25-.15.92-.15.92a49.36,49.36,0,0,1-.16,5.38s.17.85,0,1a40.34,40.34,0,0,1,.13,4.41,5,5,0,0,1,.16,1.27l.08.74a6.17,6.17,0,0,1,0,1.3h0l0,.1h0c-.08,1.07.1,0,0,1.26a2.64,2.64,0,0,0-.19,1l.14.86a14.93,14.93,0,0,0-.35,2.5c-.15.71,0,1-.12.53.18.64,0-.24,0,.59-.09.08,0,.34,0,.4v0c-.25.66,0,.44-.12.94.14.18-.07.44-.11.61l-.1.27c-.07.57-1,1.18-1.41,1.6l-.17.21s-.21.1-.21.1l-.16.06a2.58,2.58,0,0,1-.6.07,1.2,1.2,0,0,1-.8.35H77c-.49,0-1.11.14-1.73.09a8.19,8.19,0,0,1-1.67-.34,1.09,1.09,0,0,0-.57-.3.76.76,0,0,1-.61-.38,2.36,2.36,0,0,1-.33-.46l-.7-1.52-.11-.76a1.27,1.27,0,0,1-.11-1.1c-.14-.83-.08-1-.13-1.33s-.05-.08,0-.32c-.2-.05-.16-.74-.06-1.32a.1.1,0,0,1,.07.06.92.92,0,0,1,0-.49v-.34c.06-.33-.1-.82,0-.77l0-.65.11-1.68,0-.34c0-.58.28-.88,0-1.35.16-.47-.17-1.51.17-1.23,0-1.65-.29-2.54-.13-4.55a18.32,18.32,0,0,0,.22-4c-.12-2.52-.21-4.41-.31-6.72.39-1.55-.14-3.86.09-5.53L71,55.24c.25-1.11-.06-2.8.19-4.35-.07-.47-.11-.78-.21-.74.07-.44,0-1.06.16-1L71,47.7v-.31l.06-.3c-.47-3.65.2-5.3-.23-8.73.08-.23-.18-1,.07-1a4.12,4.12,0,0,0-.09-2,1.6,1.6,0,0,0,.06-.35l0-.33,0-.27c.05-.26-.15-.25-.08-.56.12-1.61.12-3.48.1-5.4A15.5,15.5,0,0,1,71.49,23v-.3a3.34,3.34,0,0,1,.94-1.78c.42-.41.71-1,.91-1.18.48-.46.56-.31.9-.29a3.51,3.51,0,0,1,2.33-.33c.14.16.8.21,1.35.52s1,.73.91.82l.15.19c.63,1.08,1.33,1.07,1.45,2.61h0a21.06,21.06,0,0,1,1.17,3l.11,1.12s0,.4,0,.45c0,2.62.08,4.53.08,7.07-.11,1.07-.18,2.44-.18,2.88a21.75,21.75,0,0,0-.2,2.42,22.2,22.2,0,0,0,.47,5.09c-.11,1.23-.14,1.23-.09,1.23-.11.49,0,1,0,.81.1.75-.26,2.62,0,2.78l0,.53a1.21,1.21,0,0,0,.15.73,7,7,0,0,1-.06.71,27.55,27.55,0,0,1,0,3.09L82,57.24A8.29,8.29,0,0,0,81.89,60"/><path class="cls-2" d="M271.26,17.91A16,16,0,0,0,269.65,13a24.43,24.43,0,0,0-3.8-5.34,23.27,23.27,0,0,0-8.56-5.34A28.8,28.8,0,0,0,247.23.71a23.49,23.49,0,0,0-8.16,1,28.62,28.62,0,0,0-7.59,3.79l-1,1c-2.75,2-5.61,6.22-7.06,10.51l-.38,1.91c.05-.2-.08.37,0,.3-.44,1.22-.25,2.17-.41,2l-.09.46a6.58,6.58,0,0,0-.13,2,26.93,26.93,0,0,1,0,3.08v.83l.16,2.8a71.14,71.14,0,0,1,.17,7.66c.1,3.63-.25,7.12,0,13.41-.05.52-.05.52-.13,2a33.82,33.82,0,0,0,0,4.7s.14,1.61.16,1.72l0,2.68c0,.38,0,.95,0,1.27-.12,4.4-.12,9.46-.1,14.71,0,2.62,0,5.29,0,7.93a23.64,23.64,0,0,0,1.37,8.09,66.2,66.2,0,0,0,4,6.69,15.34,15.34,0,0,0,4.23,3.48c1.73,1,3.36,2,3.16,1.93a31.2,31.2,0,0,0,7.86,2,17.7,17.7,0,0,0,5.2.21c2.26-.17,4.32-.76,4.41-.67l0,0a12.72,12.72,0,0,0,5.86-3.23c.4-.37.78-.78,1.14-1.17s.43-.49.67-.71a.42.42,0,0,1,.68,0,2.91,2.91,0,0,1,.44.74l0,0a40,40,0,0,0,2.49,3.69,2.07,2.07,0,0,0,1.89.81l1.52,0a2.15,2.15,0,0,0,1.47-.46c1.28-.45,1.28-2.12,1.28-2.87V87.18c.12-2.9.34-6.54.35-7.73.15-1.92,0-4.29,0-6.68a20.94,20.94,0,0,1,.28-3.82,24.31,24.31,0,0,1,.15-2.88c0-2.47.24-6.38,0-7.14l.15-3.1a3.35,3.35,0,0,0-.27-1.69,5.08,5.08,0,0,0-1.64-1.4c-1.27-.62-2.67-.36-4-.52a27.6,27.6,0,0,0-5.24-.2v0a17.3,17.3,0,0,1-2.22.39l-1.52.1c-1,0-.52-.1-.52-.12-1.44.1-2.67-.28-4.15-.18a13.53,13.53,0,0,0-4.73,1,8.48,8.48,0,0,0-.76,1.75,10.38,10.38,0,0,0-.15,1.39,6.85,6.85,0,0,0,0,1.58l-.18,1.43c-.29,2.53.29,3.94.88,4.18a12.88,12.88,0,0,0,1.76.41l.65.12a7.27,7.27,0,0,1,2.06.69c.46.21.63.43.58,1.1v0c0,.75,0,1.87,0,3.47l-.06.9c0,2.1,0,3.6,0,5a4.24,4.24,0,0,1-.27,1.47l.12,1c0,3.57,0,5.34,0,7.2a8.17,8.17,0,0,1-.29,2.66,3.79,3.79,0,0,1-2.12,2.51,4,4,0,0,0,.47-.16,3.82,3.82,0,0,1-2.63.63c-2.1,0-3.5-.88-4-2.53a12.78,12.78,0,0,1-.4-4.86l-.19-.64c0-.95.29-2.36,0-2.82l-.08-2c0-1.29-.09-2.08,0-3.55h0l0-.28,0,0c.08-2.92-.17,0-.06-3.32.13-1.07-.24-1.19-.2-2.82l.27-1.64c.15-3-.11-3.46-.12-7.74a26.44,26.44,0,0,0,.07-4.2c.1-.38,0-1.17,0-2.84a8.64,8.64,0,0,1-.17-2.16l-.08-.33a13.66,13.66,0,0,1-.08-2.92l.15-1.76,0-1.42.1-.9,0-3.11,0-1.24a17.38,17.38,0,0,1,0-2.1l.07-.69c.11-1.94.09-3.7,0-5.55a26.61,26.61,0,0,1,.15-5.8l.06-.25c.14-.46.23-.84.36-1.19l.35-.56c.41-.8.37-1,1-1.46a4.17,4.17,0,0,1,.39-.31c0-.09.81-.55.87-.43.9-.28,1.08-.18,1.35-.06a1.56,1.56,0,0,1,.72,0l.35.08c.84,0,.75,0,1.91.84,0,.13.09.09.41.47,0,0,.46.61.41.65l.31.55a2.72,2.72,0,0,1,.59,1.54,1.37,1.37,0,0,1,0,.71,26.12,26.12,0,0,1,.12,3.06c0-.42-.09,1.18-.11,1.86a9.08,9.08,0,0,1,.09,1.07,13.82,13.82,0,0,0,.23,2.17s0,.73,0,.57a3.83,3.83,0,0,0,.56,1.2s.34.23.2.17a3,3,0,0,0,1.12.43,4.1,4.1,0,0,0,1.07.13c1.1.19.94-.06,1.32.1l.49.1,3.65,0,3.65,0,.95,0c.69-.2,2.28-.12,3-.34a6.75,6.75,0,0,0,1.63-.29,3.16,3.16,0,0,0,2.15-1.75,3.22,3.22,0,0,0,.19-1.2c0-.18,0-.22,0-.44s-.05-2.29,0-2.1c0-2.25.07-2.19,0-4a32.78,32.78,0,0,0-.71-6.84"/><path class="cls-2" d="M368.69,4.32a8.09,8.09,0,0,0-3.56-2.68L365,1.57A12.51,12.51,0,0,0,359.62,0a6.27,6.27,0,0,0-1.5.17c-1.72.23-3.14.43-4.38.69-2.21.46-3.57,1.07-4.32,1.92-1.57,1.25-2,3.21-2.43,5a11,11,0,0,0-.45,6.11,6.8,6.8,0,0,0,1.87,4.73l.25.29a12.48,12.48,0,0,0,2.4,2.34,9.62,9.62,0,0,0,3.06,2.46,8.76,8.76,0,0,0,4,1.07,3.65,3.65,0,0,0,.6,0l.95,0,1.12,0a6.33,6.33,0,0,0,2.17-.32,10.6,10.6,0,0,0,4.29-2.9,19.47,19.47,0,0,0,1.83-2.21A10.32,10.32,0,0,0,370.7,14a11.62,11.62,0,0,0,.16-4.93,9,9,0,0,0-2.17-4.79"/><path class="cls-1" d="M368.9,36.36c0-.42,0-1.1-.08-1.77a1.94,1.94,0,0,0-.14-1.08c-.4-.76-1.37-1.31-3.48-1.45s-2.61,0-4.85,0c-3.26,0-4.79-.69-7.68-1.19a9.37,9.37,0,0,0-2.89-.16A2,2,0,0,0,348.44,32a10.11,10.11,0,0,0-.13,2.3s-.12,4.31,0,5.71a12.86,12.86,0,0,0,.07,2.12c.11,1.6.27,11,.54,13.17.1.55-.09,3.35-.08,3.62s.09,3.64.05,4-.07,3,0,5c0,.25.25,6.74.26,6.69a11.14,11.14,0,0,1,.1,1.16c0,.28.49,9.19.4,10.19,0,0,0,3.33-.08,4.87,0,.33.28,4.54.17,5.64,0,.17-.22,2.54-.19,3.06s-.2,1.79-.16,2.77a9.38,9.38,0,0,1,.09,1.33c0,.26-1,5.07,4.88,5.24,3.4.1,11,.18,12.57-.7a3.19,3.19,0,0,0,1.49-1.47c0-.27,0-.39.09-.75a10.3,10.3,0,0,0,0-1.38,38,38,0,0,0,0-4c-.08-.87-.09-5.67-.1-6s-.29-17.51-.23-24.35c0-6.24.64-18.58.63-18.49,0-.2.1-6.71.25-9.51,0,0-.07-.77-.13-1.6a18.81,18.81,0,0,0-.06-4.23"/><path class="cls-2" d="M156.69,14.44c0-3.68,0-5.51,0-7.43,0-.47,0-.94,0-1.46a3.83,3.83,0,0,0-.47-2.3,4.24,4.24,0,0,0-2.7-1.41,23.48,23.48,0,0,0-2.86-.32l-1,.05c-1.67-.06-1.85,0-2.06-.08-2.48,0-4.88-.11-7.4.13a5.47,5.47,0,0,0-2.29.72,2.93,2.93,0,0,0-1.31,2.2l-.17,2.73.06,1a7.57,7.57,0,0,0,.1,2.59l.08,2.08c0,1.33.09,2.15,0,3.67h0c0,.09,0,.18,0,.29l0,0c-.08,3,.17,0,.06,3.42-.13,1.11.24,1.23.2,2.91l-.28,2c-.15,3,.13,3.26.13,7.68a6.73,6.73,0,0,0,.21,1.72,12.88,12.88,0,0,1,0,2.6,13.2,13.2,0,0,1,.08,1.54,11.06,11.06,0,0,0,0,2.06c.19.5-.17,1-.15,1.57l.07.71a26.27,26.27,0,0,1,0,4l-.09.47,0,1-.1,1.35,0,3.21,0,.62a18.4,18.4,0,0,0,0,3.59l-.06.71c-.21,4,0,4.6.07,9.28l-.12,1.31c-.14,1.59.21.44.15,2.34l-.12.46c.22,1.67.18.6.09,1.75l-.05.66,0,1.72c0,.69,0,1.14-.28,1.46l.06,1.28-.2.32c0,.22.07.33.08.39s-.05.05,0,1.07c-.08.17,0,.26-.08,1l.09.75.1.79c.18,2.06-.15,2.58-.15,2.58-.5,2.13-.87,2.29-1.36,2.87-.39.38-.3.11-.72.37.06.23-.69.51-2,.89a3.19,3.19,0,0,1-1.47-.09,4.46,4.46,0,0,1-1.08-.15c-.62-.3-1.36-1-1.19-1a5,5,0,0,1-.88-2.28,13.06,13.06,0,0,1-.27-2.81l.17-.53a10,10,0,0,1-.21-1.8c.16-1.33-.08-3.7.22-4.46,0-4.64-.29-7.15-.13-12.79.28-2,.19-7.51.22-11.14-.12-7.08-.2-11.8-.32-18.89.39-4.35-.14-10.85.09-15.54l-.16-1.28c.13-1.56.11-3.52.1-5.64,0-1.07,0-2.15,0-3.27,0-.53,0-1.07,0-1.66a5.07,5.07,0,0,0-.27-2.25,3.27,3.27,0,0,0-1.63-1.5,5.8,5.8,0,0,0-.89-.31c.27.09-3.13-.47-3.13-.47.17-.22-4.09,0-5.55-.14l-1.5.17a33.77,33.77,0,0,0-3.51.33,5,5,0,0,0-2.26.86,3,3,0,0,0-1.09,2.23c0,2,0,3.88-.06,5.78-.05,3.64-.12,7.21.1,12-.23-1.28.12,1.9-.13,2a33.93,33.93,0,0,0,.15,6.49s0,0,0,.14-.1,2.38,0,4.08c-.24,9.08,0,20.93-.11,31.44l.09,2.38c0,2.67.07,3.14-.06,5.16a44.45,44.45,0,0,0,.22,5.21,14.06,14.06,0,0,1-.12,3.51c.1,2.29.16,4.44.46,7.78a14.48,14.48,0,0,0,1.34,5c.92,2,1.79,3,1.68,3.11l.42.79c2.42,3.82,5.35,6,9.9,7.89,0,0,.71.33.57.31a29.81,29.81,0,0,0,5,.88,31.93,31.93,0,0,0,5,0,.6.6,0,0,1,.24-.06c9.22,0,15.74-3.42,19.52-9A14.29,14.29,0,0,0,153,98.09a20.55,20.55,0,0,0,2.3-5.74,29.51,29.51,0,0,0,.51-6.93,22.26,22.26,0,0,1,.28-3.94,25.92,25.92,0,0,1,.15-3c0-2.55.24-6.58,0-7.37.07-1.49.09-1.71.1-1.72s0-.19,0-.55a2.43,2.43,0,0,0-.05-1.27c-.1-2.11.32-10,.06-10.41v-.81c-.2-.49,0,.07-.15-1.4l-.09-.91.07-1.25c.05-.79,0-.79,0-.75-.09-2.41,0-5.76,0-8.66l-.24-.55c.12-2.46.08-3.26-.1-3.76l.18-1.48c.34-4.93-.14-2.4,0-4.37l0-.51.16-.54c.12-2.17.17-3.24.29-5.42v0c0-.52,0-1.39,0-3.13l.08-.43c0-2.17,0-4.72-.05-6.18a4.22,4.22,0,0,1,.27-1.51Z"/><path class="cls-2" d="M214.9,4.92a8.79,8.79,0,0,0-.18-2.19,2.49,2.49,0,0,0-1.91-1.67,9.94,9.94,0,0,0-1.7-.27,5.11,5.11,0,0,1-1.85-.33l.19.08c-4.24,0-6.33,0-8.66.18a6.38,6.38,0,0,0-2.09.51,2.76,2.76,0,0,0-1.6,2.35C197,5.16,197,6.53,197,8.67l.12.79a6.68,6.68,0,0,1-.08,2.25c0,5-.13,10.19-.33,13.44l.19.71c0,1.06-.29,2.64,0,3.16l.08,2.26c0,1.45.09,2.33,0,4h0l0,.31v0c-.08,3.27.17,0,.06,3.71-.13,1.2.24,1.33.2,3.15v1.92c-.08,1.65-.08,2.62,0,3.77A12.47,12.47,0,0,1,197,49.5c-.18.43-1.21-1.12-1.21-1.12a26.9,26.9,0,0,1-1.4-4l-.31-2.07L193.64,41l-.23-1.16-1-3.35-.3-.92c-.24-.78-.63-2-1-3.46l-.1-.57c-1-4.23-1.81-6-3.24-10.93a9.32,9.32,0,0,1-.66-2.16l0-.73a13,13,0,0,1-.87-3.49l-.32-.37-.35-1.29c-.65-2.51-.38-2.37-.38-2.37L185,9.25c-.58-1.19-.32-1.24-1.07-3.41,0-.21,0-.2-.18-1a7.09,7.09,0,0,0-.69-1.43,4.66,4.66,0,0,0-1-1.25c.14.13-1-.58-1.87-.94S180,.89,179,.82c0,0-.74-.16-.34-.12-2.86-.37-3-.3-4.59-.43.51.05-.28.06-.36.06-.87,0-.71.07-1.52,0A9.32,9.32,0,0,1,170,.55s-.82,0-.69-.07a4.21,4.21,0,0,1-1.24-.07,6.66,6.66,0,0,0-1.23.4,2.67,2.67,0,0,0-1,.8A3.44,3.44,0,0,0,165.29,4c0,.48,0,.81-.06.75L165.18,6l0,5.77-.08,1c.24.76-.19,2.08.12,3.07-.16,1.45.11,5.69-.22,4.84,0,5,.29,7.75.13,13.86-.28,2.18-.19,8.15-.22,12.07.12,7.67.2,12.77.31,20.47-.39,4.72.14,11.76-.09,16.84l.16,1.39c-.25,3.37.06,8.52-.19,13.26l.1,2a5.13,5.13,0,0,0-.14,1.25,4.3,4.3,0,0,0,.08,1.65,7.54,7.54,0,0,0,0,2.33,2.86,2.86,0,0,0,1.87,2.62,5.43,5.43,0,0,0,1.76.29l.52,0s-.31,0,.4,0,.76.07.91.08l7.18-.12a20.07,20.07,0,0,0,3.1-.28,4.12,4.12,0,0,0,2.15-1,3.18,3.18,0,0,0,.84-2.17c.07-4.06.16-6.75,0-12,.19-1.16-.16-3.15.09-3.29a39.77,39.77,0,0,0-.15-7,.31.31,0,0,1,0-.15l-.1-2.62a9.41,9.41,0,0,0,.13-1.8c.12-4.92.12-10.59.1-16.46,0-1.25,0-2.52,0-3.78a.62.62,0,0,0,.1.14l.56,1.78a5,5,0,0,1,1.19,1.9l.3,1,.65,1.47c.32,1,2.26,6.41,3.36,9.37,0,0,.33.78.72,1.67.43,1.27.86,2.67,1.28,4.36.07,1.25,2.94,9.32,2.68,9.5l0,0c1.05,4.46,4.16,13.2,4.1,13.08l.59,1.49a6.33,6.33,0,0,0,2.35,3.11,6.92,6.92,0,0,0,3.81.68l1-.06,1.16.05c1.14,0,1.55-.05,2.34-.08a18.33,18.33,0,0,0,2.23,0,1.75,1.75,0,0,0,1.37-.88c0-.44.22-1,.22-1.57s0-1.14,0-2.05V90.34c.11-3.24.34-7.32.35-8.65.15-2.14,0-4.8,0-7.48a25.89,25.89,0,0,1,.28-4.28,30.35,30.35,0,0,1,.15-3.22c0-2.77.24-7.14,0-8l.22-5.35c0,.54.14-7.55-.12-8l.11-1.87a5.05,5.05,0,0,1-.44-2.19l.09-1.06-.08-1.6c.07-1.07.16-6.8.18-10,0,0-.16-4.13-.33-4.66l.18-1.6c.34-5.35-.14-2.71,0-4.85l.18-1,.29-5.87v0c0-.56,0-2,0-3.93l.07.07c0-.59,0-1.21,0-1.83"/><path class="cls-1" d="M338.94,70.3s-.13-1.21-.21-2.9v0l.08,1.1a28.19,28.19,0,0,1,.07-3.77c0,.25,0-.07,0-.55,0-.18,0-.28,0-.39,0-3,.24-7.67,0-8.59.14-3.64.17-4.36.22-5.75,0,.58.26-11.11,0-11.63h0a9.44,9.44,0,0,1-.26-1.35c0-4.42-.07-10.61,0-14.7.28-2.32.19-8.66.22-12.84,0-1.67-.06-3.23-.09-4.72,0-.2,0-.4,0-.62,0,0,0,.07,0,.09a1,1,0,0,0,0-.25s0,0,0-.07v0s0-.08,0-.12,0-.1,0-.15A2.82,2.82,0,0,0,338,1a4.93,4.93,0,0,0-2.15-.79A24.26,24.26,0,0,0,332.93,0L330.7.11a36.41,36.41,0,0,0-4.37.05,7.19,7.19,0,0,0-3,1.24,5.77,5.77,0,0,0-2.41,2.67A16,16,0,0,0,320,6.35l-1.13,3.4-3,8.49-.32,1.36c-.52,1.71-.39,1.33-.67,1.77l-2.59,7.55a52.38,52.38,0,0,1-2.21,6l-.1.74c-.35.75-.38.25-.51.73,0,.08-.36-.29-.36-.32l-.67-1.5a17.39,17.39,0,0,1-.71-2.05h0l-.09-.32v0c-1-3.33-.17.1-1.27-3.76-.27-1.27-.67-1.3-1.24-3.19l-.35-2c-1-3.44-1.4-3.95-3-8.87a52.14,52.14,0,0,0-1.63-5.84,14.31,14.31,0,0,0-.9-3.09,19.14,19.14,0,0,1-1.36-1.75,7.18,7.18,0,0,0-2.41-2.13,6.4,6.4,0,0,0-3-.82l-1-.22-1.43,0c-.71,0-1.41,0-1.41,0l-.18-.12-4,.06-.33.05a7.69,7.69,0,0,0-2,.26,2.79,2.79,0,0,0-2,1.54A2.13,2.13,0,0,0,280,3.52l-.11.7c-.21,4.65.07,8.49.09,13.94,0,0,.08-.21,0,2l-.21,1.1a8.13,8.13,0,0,1-.1,2.87l.18,1.9c0,.54-.17,2.12-.28,1.71l.06,1.49-.26,1.37a15,15,0,0,1,.15,2.81c-.07.2-.12,1.69-.15,2.52l.28,1.9s.13,1.28.21,3.08l-.09-1.24a29,29,0,0,1-.07,3.81,14.63,14.63,0,0,1,0,2.11A11.7,11.7,0,0,1,279.9,49a16,16,0,0,1-.28,1.69l.2,1.63c-.06,1.09-.09,1.91-.09,1.91l-.05,8.23-.05,1.17c.12,1,0,2.58.09,3.16-.16,1.55.07,13.53-.09,20.1-.28,2.34-.19,8.76-.22,13,0,2.13.07,4.07.11,5.93a2.86,2.86,0,0,0,1.05,2.12,4.89,4.89,0,0,0,2.15.8,24.53,24.53,0,0,0,2.92.16l5.58-.05c1,0,2-.05,3-.14a14.16,14.16,0,0,0,1.73-.23,4.18,4.18,0,0,0,2.24-1.11,2.89,2.89,0,0,0,.77-1.52,8.36,8.36,0,0,0,.12-1.28c0-.78,0-1.48.06-2.19,0-1.49,0-3,0-4.7,0-3.21-.08-6.46.05-9.19L299.1,87c.28-3.62,0-9.15.3-14.23-.05-1.38-.07-2-.08-2.19,0,.23.09-3.12.09-3.12.2.22-.06-4.4.13-6l-.14-1.61c-.08-2.78-.11-5.21-.1-7.44,0-.86,0-1.67,0-2.48l.45.94c.73,2.09.62,1.91.62,1.91,1.67,5.19,2.68,8.89,4.26,13.27l.29.64a3,3,0,0,0,.54,1,2.21,2.21,0,0,0,1.76,1h.18a2,2,0,0,0,.41.09h0a9.85,9.85,0,0,0,2.46.16,4.66,4.66,0,0,0,2.83-.93,4.44,4.44,0,0,0,1.27-2.49l.58-2.15,2.37-9,1.5-5.8c0-.24.3-.53.58-.39s.18.46.2.71V50.5c0-.07.12,2.86.14,4.4s0,3.2,0,4.38a60.25,60.25,0,0,0,.27,6.06,17.64,17.64,0,0,1-.09,4.07c.07,2.67.36,5.22.27,8.94-.26,1.31.35,10.44,0,10.56l0,0c-.18,4.91.22,8.37.07,13.65a8.83,8.83,0,0,1,0,.88l.16,1.71a2.58,2.58,0,0,0,1.06,2.07,4.91,4.91,0,0,0,2.42.55,55.27,55.27,0,0,0,5.74-.27s1.53-.15,1.7-.15c5.12.08,6.36-.16,6.66-1.49a2,2,0,0,0,.32-.53,2.07,2.07,0,0,0,.29-1.13l.11-.69c.21-4.6-.07-8.4-.09-13.79,0,0-.08.2,0-2l.21-1.09a8,8,0,0,1,.1-2.84L338.74,82c0-.54.17-2.09.28-1.69L339,78.81l.26-1.36a14.8,14.8,0,0,1-.15-2.78c.07-.2.12-1.68.15-2.49Z"/></svg>